<?xml version="1.0" encoding="utf-8"?>
<!-- Generator: Adobe Illustrator 16.0.0, SVG Export Plug-In . SVG Version: 6.00 Build 0)  -->
<!DOCTYPE svg PUBLIC "-//W3C//DTD SVG 1.1//EN" "http://www.w3.org/Graphics/SVG/1.1/DTD/svg11.dtd">
<svg version="1.1" id="Layer_1" xmlns="http://www.w3.org/2000/svg" xmlns:xlink="http://www.w3.org/1999/xlink" x="0px" y="0px"
	viewBox="0 0 849.631 122.201" enable-background="new 0 0 849.631 122.201"
	 xml:space="preserve">
<path fill="#C29F7A" d="M849.631,122.149c-8.264-21.115-57.846-17.469-71.615-17.469c-13.771,0-39.479-2.768-49.578-7.357
	c-10.098-4.59-24.789-21.121-37.641-22.957c-12.853-1.836-46.82,14.686-71.607,12.85S577.879,60.87,548.502,60.73
	s-50.492,30.295-89.049,30.684s-52.327-50.103-91.802-50.103s-37.639,19.557-53.245,19.417S276.768,13.77,219.85,13.77
	S143.673,87.212,91.346,87.212S45,22.033,0,0v122.201L849.631,122.149z"/>
<path fill="#D0AD87" d="M0,97.007c30,1.836,55.542,10.236,87.673,10.098c97.665-0.423,129.137-37.639,170.448-37.639
	s54.602,37.098,73.83,37.639c30.946,0.871,31.492-24.765,60.489-24.787c16.524-0.012,39.474,29.377,57.834,29.377
	s43.146-14.688,58.753-14.688s24.787,14.688,40.394,14.688c15.605,0,32.129-13.77,51.408-14.688
	c19.278-0.918,39.475,19.277,55.999,19.277s29.377-9.18,41.312-9.18c11.934,0,26.9,15.097,44.41,15.051L0,122.201V97.007z"/>
</svg>
